<svg xmlns="http://www.w3.org/2000/svg" width="256" height="256"><path fill-opacity=".012" d="M0 128.004v128.004l128.25-.254 128.25-.254.254-127.75L257.008 0H0v128.004m.485.496c0 70.4.119 99.053.265 63.672.146-35.38.146-92.98 0-128C.604 29.153.485 58.1.485 128.5" fill="#1976D2" fill-rule="evenodd"/><path fill-opacity=".012" d="M97.449 1.288c-.81.935.881 1.256 7.394 1.406 12.895.296 13.345 2.774.657 3.614-2.75.183-.811.413 4.309.512 5.12.099 9.064.576 8.765 1.06-.899 1.455-19.586 2.508-20.915 1.179-.856-.856-.769-1.378.349-2.085 1.055-.667.07-.948-3.365-.959-4.13-.013-4.761.235-4.216 1.655.353.921.065 2.036-.643 2.485-.815.517-.096.82 1.966.83 4.631.022 4.024 1.636-.912 2.425-4.567.73-7.499-.749-4.83-2.436 1.224-.774 1.133-.944-.508-.945-3.808-.003-6.376 1.13-5.824 2.57.367.955-.211 1.405-1.819 1.415C73.94 14.036 71 15.153 71 16.617 71 17.438 69.949 18 68.413 18c-1.956 0-2.863.732-3.719 3-.623 1.65-1.51 3-1.972 3-.462 0-.562-.45-.222-1 .351-.567-.49-1-1.941-1-1.892 0-2.559.521-2.559 2 0 1.321-.667 2-1.965 2-1.08 0-2.446.9-3.035 2-.726 1.356-.737 2-.035 2 1.845 0 1.094 3.172-.873 3.686-1.049.274-2.144 1.405-2.433 2.512-.29 1.107-1.091 1.825-1.78 1.595-2.142-.714-2.191-2.899-.077-3.452 1.107-.289 2.238-1.384 2.512-2.433.389-1.487-.032-1.908-1.908-1.908-1.739 0-2.406.554-2.406 2 0 1.333-.667 2-2 2s-2 .667-2 2-.667 2-2 2-2 .667-2 2-.667 2-2 2-2 .667-2 2-.667 2-2 2c-1.446 0-2 .667-2 2.406 0 1.914.409 2.3 2 1.884 1.368-.358 2-.031 2 1.034 0 2.06-1.907 3.169-3.209 1.867-1.48-1.48-3.795-.311-4.843 2.445-.494 1.3-1.585 2.364-2.423 2.364-.979 0-1.525.939-1.525 2.622 0 2.145.257 2.409 1.411 1.452 1.682-1.396 2.878.01 1.985 2.336-.724 1.887-1.581 2.005-3.154.432-1.629-1.629-4.242.699-4.242 3.78C18 69.98 17.407 71 16.617 71c-1.464 0-2.581 2.94-2.603 6.857-.01 1.608-.46 2.186-1.415 1.819-1.44-.552-2.573 2.016-2.57 5.824.001 1.641.171 1.732.945.508 1.687-2.669 3.166.263 2.436 4.83-.789 4.936-2.403 5.543-2.425.912-.01-2.062-.313-2.781-.83-1.966-.449.708-1.564.996-2.485.643-1.499-.575-1.672.521-1.685 10.716C5.962 118 3 120.752 2.661 104.231c-.129-6.289-.411-7.615-1.411-6.619-1.803 1.796-1.803 59.98 0 61.776 1 .996 1.282-.33 1.411-6.619C3 136.248 5.962 139 5.985 155.857c.013 10.195.186 11.291 1.685 10.716.921-.353 2.036-.065 2.485.643.517.815.82.096.83-1.966.022-4.631 1.636-4.024 2.425.912.73 4.567-.749 7.499-2.436 4.83-.774-1.224-.944-1.133-.945.508-.003 3.808 1.13 6.376 2.57 5.824.955-.367 1.405.211 1.415 1.819.022 3.917 1.139 6.857 2.603 6.857.79 0 1.383 1.02 1.383 2.378 0 3.318 2.493 5.287 4.542 3.587 1.945-1.614 4.021.127 3.079 2.58-.523 1.364-.924 1.448-2.133.445-1.253-1.04-1.488-.821-1.488 1.388 0 1.683.546 2.622 1.525 2.622.838 0 1.929 1.064 2.423 2.364 1.048 2.756 3.363 3.925 4.843 2.445 1.302-1.302 3.209-.193 3.209 1.867 0 1.065-.632 1.392-2 1.034-1.591-.416-2-.03-2 1.884 0 1.739.554 2.406 2 2.406 1.333 0 2 .667 2 2s.667 2 2 2 2 .667 2 2 .667 2 2 2 2 .667 2 2 .667 2 2 2c1.33 0 2 .667 2 1.989 0 1.476.606 1.938 2.353 1.794 2.9-.24 2.488-3.33-.551-4.124-1.107-.29-1.825-1.091-1.595-1.78.714-2.142 2.899-2.191 3.452-.077.289 1.107 1.384 2.238 2.433 2.512 1.967.514 2.718 3.686.873 3.686-.702 0-.691.644.035 2 .589 1.1 1.955 2 3.035 2 1.298 0 1.965.679 1.965 2 0 1.479.667 2 2.559 2 1.451 0 2.292-.433 1.941-1-.34-.55.11-1 1-1s1.346.441 1.013.979c-1.109 1.795 1.475 5.021 4.022 5.021 1.432 0 2.465.58 2.465 1.383 0 1.464 2.94 2.581 6.857 2.603 1.608.01 2.186.46 1.819 1.415-.552 1.44 2.016 2.573 5.824 2.57 1.641-.001 1.732-.171.508-.945-2.722-1.721.342-3.312 4.896-2.542 4.883.825 5.446 2.51.846 2.531-2.1.01-2.789.308-1.947.842.716.454 1.166 1.46 1 2.235-.242 1.125 1.71 1.458 9.697 1.656 11.796.293 15.251.901 13.735 2.417-.58.58-4.874 1.118-9.541 1.195-4.668.077-7.971.471-7.34.875 1.497.959 60.795.959 62.292 0 .631-.404-2.672-.798-7.34-.875-4.667-.077-8.961-.615-9.541-1.195-1.516-1.516 1.939-2.124 13.735-2.417 7.987-.198 9.939-.531 9.697-1.656-.166-.775.284-1.781 1-2.235.819-.52-.111-.832-2.506-.842-4.847-.019-3.953-1.626 1.41-2.532 4.55-.769 7.611.823 4.891 2.543-1.224.774-1.133.944.508.945 3.808.003 6.376-1.13 5.824-2.57-.367-.955.211-1.405 1.819-1.415 3.917-.022 6.857-1.139 6.857-2.603 0-.763 1.008-1.39 2.25-1.398 3.4-.023 5.109-1.502 4.487-3.883-.374-1.43-.081-2.102.916-2.102.806 0 1.187.45.847 1-.351.567.49 1 1.941 1 1.892 0 2.559-.521 2.559-2 0-1.321.667-2 1.965-2 1.08 0 2.446-.9 3.035-2 .726-1.356.737-2 .035-2-1.845 0-1.094-3.172.873-3.686 1.049-.274 2.144-1.405 2.433-2.512.615-2.349 3.225-1.869 3.02.556-.093 1.103.645 1.642 2.25 1.642 1.722 0 2.389-.558 2.389-2 0-1.333.667-2 2-2s2-.667 2-2 .667-2 2-2c1.46 0 2-.667 2-2.469 0-1.704-.433-2.302-1.399-1.931-1.988.762-2.855-1.144-1.16-2.551 1.13-.938 1.645-.757 2.524.886 1.511 2.823 3.859 2.646 3.679-.276-.105-1.705-.619-2.217-1.894-1.883-1.113.291-1.75-.109-1.75-1.1 0-2.06 1.907-3.169 3.209-1.867 1.48 1.48 3.795.311 4.843-2.445.494-1.3 1.585-2.364 2.423-2.364.979 0 1.525-.939 1.525-2.622 0-2.209-.235-2.428-1.488-1.388-1.209 1.003-1.61.919-2.133-.445-.942-2.453 1.134-4.194 3.079-2.58 2.049 1.7 4.542-.269 4.542-3.587 0-1.358.593-2.378 1.383-2.378 1.449 0 2.58-2.932 2.603-6.75.008-1.25.633-2.25 1.407-2.25 1.578 0 2.614-2.132 2.592-5.332-.013-1.748-.198-1.879-.959-.676-1.72 2.72-3.312-.341-2.543-4.891.906-5.363 2.513-6.257 2.532-1.41.01 2.395.322 3.325.842 2.506.454-.716 1.46-1.166 2.235-1 1.01.217 1.497-.948 1.724-4.124.272-3.811.11-4.257-1.161-3.202-1.053.874-1.672.911-2.156.128-.926-1.499.523-19.895 1.621-20.573.484-.299.961 3.645 1.06 8.765.099 5.12.329 7.059.512 4.309.844-12.75 3.453-12.214 3.668.753.114 6.853.368 8.134 1.358 6.84 1.488-1.945 1.849-62.561.367-61.646-.503.311-1.065.123-1.25-.418-.184-.541-.398 2.872-.475 7.584-.077 4.712-.615 9.042-1.195 9.622-1.516 1.516-2.124-1.939-2.417-13.735-.198-7.987-.531-9.939-1.656-9.697-.775.166-1.781-.284-2.235-1-.52-.819-.832.111-.842 2.506-.019 4.847-1.626 3.953-2.532-1.41-.769-4.55.823-7.611 2.543-4.891.774 1.224.944 1.133.945-.508.003-3.808-1.13-6.376-2.57-5.824-.955.367-1.405-.211-1.415-1.819-.022-3.917-1.139-6.857-2.603-6.857-.79 0-1.383-1.02-1.383-2.378 0-3.318-2.493-5.287-4.542-3.587-1.945 1.614-4.021-.127-3.079-2.58.523-1.364.924-1.448 2.133-.445 1.253 1.04 1.488.821 1.488-1.388 0-1.683-.546-2.622-1.525-2.622-.838 0-1.929-1.064-2.423-2.364-1.048-2.756-3.363-3.925-4.843-2.445-1.302 1.302-3.209.193-3.209-1.867 0-1.005.636-1.391 1.794-1.088 1.318.345 1.846-.155 1.989-1.883.144-1.747-.318-2.353-1.794-2.353-1.322 0-1.989-.67-1.989-2 0-1.333-.667-2-2-2s-2-.667-2-2-.667-2-2-2-2-.667-2-2-.667-2-2-2c-1.33 0-2-.667-2-1.989 0-1.476-.606-1.938-2.353-1.794-2.9.24-2.488 3.33.551 4.124 2.114.553 2.065 2.738-.077 3.452-.689.23-1.49-.488-1.78-1.595-.289-1.107-1.384-2.238-2.433-2.512-1.967-.514-2.718-3.686-.873-3.686.702 0 .691-.644-.035-2-.589-1.1-1.56-2-2.158-2-.678 0-.583.607.254 1.615 1.164 1.403 1.081 1.566-.628 1.237-1.082-.209-2.024-.936-2.093-1.616a107.53 107.53 0 01-.25-3.236c-.09-1.446-.833-2-2.684-2-1.451 0-2.292.433-1.941 1 .34.55.141 1-.441 1S193 22.923 193 21.607c0-2.439-1.646-3.607-5.082-3.607-1.055 0-1.918-.623-1.918-1.383 0-1.464-2.94-2.581-6.857-2.603-1.608-.01-2.186-.46-1.819-1.415.552-1.44-2.016-2.573-5.824-2.57-1.641.001-1.732.171-.508.945 2.669 1.687-.263 3.166-4.83 2.436-4.936-.789-5.543-2.403-.912-2.425 2.062-.01 2.781-.313 1.966-.83-.708-.449-.996-1.564-.643-2.485.545-1.42-.086-1.668-4.216-1.655-3.435.011-4.42.292-3.365.959 1.118.707 1.205 1.229.349 2.085-1.329 1.329-20.016.276-20.915-1.179-.299-.484 3.645-.961 8.765-1.06 5.12-.099 7.059-.329 4.309-.512-12.696-.84-12.235-3.318.672-3.614 6.764-.155 8.21-.444 7.215-1.444-1.762-1.77-60.402-1.734-61.938.038M85.667 3.667c-1.285 1.284-.671 3.272.833 2.695.825-.317 1.5-1.203 1.5-1.969 0-1.47-1.212-1.848-2.333-.726M169 4.31c0 .812.708 1.748 1.573 2.08 1.096.42 1.475.099 1.25-1.061C171.412 3.213 169 2.341 169 4.31M75.638 8.5c-.347.905-.005 1.5.862 1.5s1.209-.595.862-1.5c-.317-.825-.705-1.5-.862-1.5-.157 0-.545.675-.862 1.5m104 0c-.347.905-.005 1.5.862 1.5s1.209-.595.862-1.5c-.317-.825-.705-1.5-.862-1.5-.157 0-.545.675-.862 1.5M188 12.441c0 .857.45 1.559 1 1.559s1-.423 1-.941-.45-1.219-1-1.559c-.55-.34-1 .084-1 .941M67 13c0 .55.45 1 1 1s1-.45 1-1-.45-1-1-1-1 .45-1 1m-6.5 3c-.399.646-.276 1.624.274 2.174.667.667 1.242.609 1.726-.174.399-.646.276-1.624-.274-2.174-.667-.667-1.242-.609-1.726.174m14.5.5c0 1.558 4.327 2.079 7.418.893C85.459 16.226 83.963 15 79.5 15c-3.333 0-4.5.389-4.5 1.5m98-.607c0 1.218 2.567 2.107 6.082 2.107 1.927 0 2.918-.509 2.918-1.5 0-1.111-1.167-1.5-4.5-1.5-2.475 0-4.5.402-4.5.893m22 .548c0 .857.45 1.559 1 1.559s1-.423 1-.941-.45-1.219-1-1.559c-.55-.34-1 .084-1 .941m-127 3.42c0 .474 1.125.647 2.5.384s2.5-.651 2.5-.862c0-.21-1.125-.383-2.5-.383s-2.5.388-2.5.861m116.083-.502c1.195 1.03 5.917 1.557 5.917.66 0-.56-1.425-1.019-3.167-1.019-1.741 0-2.979.162-2.75.359M53.211 21.601c-.71.769-.849 1.399-.309 1.399 1.038 0 2.541-1.902 1.948-2.466-.192-.183-.93.297-1.639 1.067M202 20.902c0 1.038 1.902 2.541 2.466 1.948.183-.192-.297-.93-1.067-1.639-.769-.71-1.399-.849-1.399-.309M48.409 24.376c-.847 2.208.28 3.335 1.808 1.807.902-.902.905-1.461.016-2.35-.89-.89-1.324-.761-1.824.543m158.267.025c-.324.844-.189 1.782.299 2.083 1.307.808 2.416-1.493 1.271-2.638-.64-.64-1.185-.448-1.57.555M54.5 28c-.34.55.057 1 .882 1s1.778-.45 2.118-1c.34-.55-.057-1-.882-1s-1.778.45-2.118 1m-12 11c-1.077 1.742.519 3.229 2.078 1.935.77-.639 1.153-1.561.852-2.048-.73-1.181-2.165-1.125-2.93.113m169.654.438c.191.917.796 1.644 1.346 1.615 1.484-.079 1.212-2.316-.346-2.835-.841-.28-1.215.177-1 1.22M38.5 43c-1.077 1.742.519 3.229 2.078 1.935.77-.639 1.153-1.561.852-2.048-.73-1.181-2.165-1.125-2.93.113m176.996.007c-.343.554.1 1.285.984 1.624 1.914.734 2.981-.075 2.061-1.564-.83-1.344-2.235-1.371-3.045-.06M34.5 47c-1.077 1.742.519 3.229 2.078 1.935.77-.639 1.153-1.561.852-2.048-.73-1.181-2.165-1.125-2.93.113m185.07-.113c-.301.487.082 1.409.852 2.048 1.559 1.294 3.155-.193 2.078-1.935-.765-1.238-2.2-1.294-2.93-.113M23.543 48.931c-.74 1.197 1.141 2.382 2.473 1.559C27.135 49.799 26.4 48 25 48c-.485 0-1.141.419-1.457.931m206.675.223c.519 1.558 2.756 1.83 2.835.346.029-.55-.698-1.155-1.615-1.346-1.043-.215-1.5.159-1.22 1M21.211 53.601c-.71.769-.849 1.399-.309 1.399 1.038 0 2.541-1.902 1.948-2.466-.192-.183-.93.297-1.639 1.067M234 52.902c0 1.038 1.902 2.541 2.466 1.948.183-.192-.297-.93-1.067-1.639-.769-.71-1.399-.849-1.399-.309M27 57.5c0 1.375.45 2.5 1 2.5s1-1.125 1-2.5-.45-2.5-1-2.5-1 1.125-1 2.5m200.393-.918c.334.87.607 1.995.607 2.5 0 .505.45.918 1 .918s1-1.125 1-2.5c0-1.63-.56-2.5-1.607-2.5-1.055 0-1.398.544-1 1.582M15.565 60.895c-.305.493.119 1.153.941 1.469.907.348 1.494-.003 1.494-.895 0-1.618-1.563-1.986-2.435-.574M239 61.469c0 .892.587 1.243 1.494.895.822-.316 1.246-.976.941-1.469-.872-1.412-2.435-1.044-2.435.574M12 68c0 .55.45 1 1 1s1-.45 1-1-.45-1-1-1-1 .45-1 1m7 2.5c0 1.925.401 3.5.892 3.5 1.124 0 2.37-4.768 1.58-6.046C20.211 65.914 19 67.161 19 70.5m216.673-2.091c-.688 1.795.292 5.591 1.444 5.591 1.158 0 1.148-5.718-.012-6.435-.493-.305-1.137.075-1.432.844M243 68c0 .55.702 1 1.559 1s1.281-.45.941-1c-.34-.55-1.041-1-1.559-1s-.941.45-.941 1M8.166 75.876c-1.074.681-1.025.964.25 1.453 1.002.385 1.584.069 1.584-.86 0-1.7-.058-1.719-1.834-.593M15 79c0 2.2.414 4 .921 4 1.162 0 2.442-5.603 1.594-6.976C16.154 73.822 15 75.187 15 79m224.485-2.976c-.848 1.373.432 6.976 1.594 6.976.507 0 .921-1.8.921-4 0-3.813-1.154-5.178-2.515-2.976m7.515.507c0 1.618 1.563 1.986 2.435.574.305-.493-.119-1.153-.941-1.469-.907-.348-1.494.003-1.494.895m3.355 8.952c.355.924.645 1.869.645 2.099 0 .23.675.418 1.5.418 2.145 0 1.851-1.299-.645-2.858-1.899-1.187-2.071-1.148-1.5.341m-246.688.184C2.545 86.788 2.923 88 4.393 88c.766 0 1.652-.675 1.969-1.5.577-1.504-1.411-2.118-2.695-.833M7 107.617c0 13.392 1.788 12.969 2.208-.522.212-6.83-.049-9.508-.958-9.825C7.3 96.938 7 99.424 7 107.617m240.479-9.584c-.912 1.476.557 19.871 1.641 20.541.485.3.88-4.166.88-9.956 0-9.66-.86-13.272-2.521-10.585M.445 128.5c-.001 17.05.136 24.166.303 15.812.167-8.353.167-22.303 0-31-.166-8.696-.303-1.862-.303 15.188M92.5 112c.34.55.816 1 1.059 1s.441-.45.441-1-.477-1-1.059-1-.781.45-.441 1m70.5.059c0 .582.45.781 1 .441s1-.816 1-1.059-.45-.441-1-.441-1 .477-1 1.059M79 125c0 .55.477 1 1.059 1s.781-.45.441-1-.816-1-1.059-1-.441.45-.441 1m13 0c0 .55.45 1 1 1s1-.45 1-1-.45-1-1-1-1 .45-1 1m71 0c0 .55.45 1 1 1s1-.45 1-1-.45-1-1-1-1 .45-1 1m13.5 0c-.34.55-.141 1 .441 1s1.059-.45 1.059-1-.198-1-.441-1-.719.45-1.059 1M7 149.383c0 8.193.3 10.679 1.25 10.347.909-.317 1.17-2.995.958-9.825C8.788 136.414 7 135.991 7 149.383M3.25 170.25c.228.688 1.164 1.395 2.079 1.573 1.16.225 1.481-.154 1.061-1.25-.71-1.849-3.753-2.162-3.14-.323m247.357.332c-.924 2.407-.771 2.537 1.393 1.186 2.322-1.45 2.611-2.768.607-2.768-.766 0-1.666.712-2 1.582M15 178c0 3.813 1.154 5.178 2.515 2.976.848-1.373-.432-6.976-1.594-6.976-.507 0-.921 1.8-.921 4m224.505-1.024c-.676 3.081-.076 5.024 1.554 5.024.518 0 .941-1.8.941-4 0-4.682-1.551-5.319-2.495-1.024m-231.339 2.9c-1.074.681-1.025.964.25 1.453 1.002.385 1.584.069 1.584-.86 0-1.7-.058-1.719-1.834-.593m238.834.593c0 .892.587 1.243 1.494.895.822-.316 1.246-.976.941-1.469-.872-1.412-2.435-1.044-2.435.574M19 186.5c0 3.339 1.211 4.586 2.472 2.546.79-1.278-.456-6.046-1.58-6.046-.491 0-.892 1.575-.892 3.5m216.545-1.641c-.72 2.268.327 5.338 1.56 4.576 1.189-.735 1.156-6.435-.038-6.435-.513 0-1.198.837-1.522 1.859M12 189c0 .55.45 1 1 1s1-.45 1-1-.45-1-1-1-1 .45-1 1m231 0c0 .55.423 1 .941 1s1.219-.45 1.559-1c.34-.55-.084-1-.941-1s-1.559.45-1.559 1m-226.857 5.907c-1.006.625-1.053 1.03-.183 1.568 1.372.848 2.402.097 1.894-1.38-.208-.606-.914-.683-1.711-.188m222.373.068c-.808 1.307 1.493 2.416 2.638 1.271.64-.64.448-1.185-.555-1.57-.844-.324-1.782-.189-2.083.299M79 196.059c0 .582.45.781 1 .441s1-.816 1-1.059-.45-.441-1-.441-1 .477-1 1.059M92 196c0 .55.45 1 1 1s1-.45 1-1-.45-1-1-1-1 .45-1 1m71 0c0 .55.45 1 1 1s1-.45 1-1-.45-1-1-1-1 .45-1 1m13.5 0c.34.55.816 1 1.059 1s.441-.45.441-1-.477-1-1.059-1-.781.45-.441 1M27 199.583c0 1.421.484 2.422 1.075 2.225.591-.197 1.041-.684 1-1.083-.041-.399-.075-1.4-.075-2.225 0-.825-.45-1.5-1-1.5s-1 1.162-1 2.583m201-1.083c0 .825-.034 1.826-.075 2.225-.041.399.409.886 1 1.083.591.197 1.075-.804 1.075-2.225s-.45-2.583-1-2.583-1 .675-1 1.5m-206.789 4.899c.709.77 1.447 1.25 1.639 1.067.593-.564-.91-2.466-1.948-2.466-.54 0-.401.63.309 1.399m213.248-.332c-1.026 1.66-.105 1.89 1.33.332.71-.769.849-1.399.309-1.399-.539 0-1.277.48-1.639 1.067m-210.894 3.828c-.305.493.183 1.178 1.084 1.524 1.947.747 2.809.131 1.892-1.352-.804-1.301-2.228-1.383-2.976-.172m206.894.172c-.92 1.489.147 2.298 2.061 1.564.884-.339 1.327-1.07.984-1.624-.81-1.311-2.215-1.284-3.045.06m-195.983.972c-1.008 1.63 1.231 3.654 2.566 2.319.724-.724.598-1.412-.411-2.249-1.074-.891-1.636-.91-2.155-.07M92.5 209c-.34.55-.141 1 .441 1S94 209.55 94 209s-.198-1-.441-1-.719.45-1.059 1m70.5 0c0 .55.477 1 1.059 1s.781-.45.441-1-.816-1-1.059-1-.441.45-.441 1m-124.524 3.039c-1.008 1.63 1.231 3.654 2.566 2.319.724-.724.598-1.412-.411-2.249-1.074-.891-1.636-.91-2.155-.07m177.067.892c-.317.512-.118 1.213.441 1.559 1.193.737 3.016-.199 3.016-1.549 0-1.217-2.707-1.225-3.457-.01m-173.067 3.108c-1.008 1.63 1.231 3.654 2.566 2.319.724-.724.598-1.412-.411-2.249-1.074-.891-1.636-.91-2.155-.07m169.633.33c-.891 1.074-.91 1.636-.07 2.155 1.63 1.008 3.654-1.231 2.319-2.566-.724-.724-1.412-.598-2.249.411m-5.321 8.333c-.349 1.337.144 1.836 1.925 1.946 1.721.106 2.306-.313 2.079-1.489-.441-2.291-3.435-2.633-4.004-.457M55 229c0 .55.702 1 1.559 1s1.281-.45.941-1c-.34-.55-1.041-1-1.559-1s-.941.45-.941 1m144.5 0c-.34.55.084 1 .941 1s1.559-.45 1.559-1-.423-1-.941-1-1.219.45-1.559 1m-151.346 2.438c.191.917.796 1.644 1.346 1.615 1.484-.079 1.212-2.316-.346-2.835-.841-.28-1.215.177-1 1.22M206.5 231c-.816 1.32.38 3.192 1.569 2.457 1.215-.75 1.207-3.457-.01-3.457-.518 0-1.219.45-1.559 1m-153.289 4.399c.709.77 1.447 1.25 1.639 1.067.593-.564-.91-2.466-1.948-2.466-.54 0-.401.63.309 1.399m149.248-.332c-1.026 1.66-.105 1.89 1.33.332.71-.769.849-1.399.309-1.399-.539 0-1.277.48-1.639 1.067M68 237.139c0 .473 1.125.861 2.5.861s2.5-.173 2.5-.383c0-.211-1.125-.599-2.5-.862s-2.5-.09-2.5.384M186 237c-2.369.759-2.329.806.75.9 1.787.055 3.25-.35 3.25-.9 0-1.13-.471-1.13-4 0m-125.5 2c-.399.646-.276 1.624.274 2.174.667.667 1.242.609 1.726-.174.399-.646.276-1.624-.274-2.174-.667-.667-1.242-.609-1.726.174m14.5 1.5c0 1.111 1.167 1.5 4.5 1.5 4.463 0 5.959-1.226 2.918-2.393-3.091-1.186-7.418-.665-7.418.893m99.25-.838c-2.728 1.101-1.009 2.338 3.25 2.338 3.333 0 4.5-.389 4.5-1.5 0-1.486-4.845-2.01-7.75-.838m20.75.897c0 .857.45 1.281 1 .941.55-.34 1-1.041 1-1.559s-.45-.941-1-.941-1 .702-1 1.559m-128 3.382c0 .518.45 1.219 1 1.559.55.34 1-.084 1-.941S68.55 243 68 243s-1 .423-1 .941m121 .618c0 .857.45 1.281 1 .941.55-.34 1-1.041 1-1.559s-.45-.941-1-.941-1 .702-1 1.559m-112.364 3.935c.316.822.976 1.246 1.469.941 1.412-.872 1.044-2.435-.574-2.435-.892 0-1.243.587-.895 1.494m22.114-.922c-1.936 1.965.057 2.428 10.45 2.428 6.747 0 10.822-.361 10.25-.909-1.222-1.168-19.709-2.525-20.7-1.519m46.75.147c-2.75.22-5.444.84-5.986 1.377-.642.636 2.849.877 10 .69 6.466-.168 10.986-.697 10.986-1.286 0-1.074-6.89-1.433-15-.781m34.5.222c0 1.676 1.774 2.092 2.364.553.348-.907-.003-1.494-.895-1.494-.808 0-1.469.423-1.469.941M85 252c.589 1.1 1.505 2 2.035 2 1.588 0 1.09-2.738-.617-3.393-2.414-.927-2.575-.769-1.418 1.393m84.805-1.321c-.984.259-1.463 1.049-1.143 1.884.754 1.962 1.628 1.804 3.106-.563 1.262-2.02 1.101-2.129-1.963-1.321" fill="#1976D2" fill-rule="evenodd"/><path fill-opacity=".06" d="M99 1c0 .55 1.35 1 3 1s3-.45 3-1-1.35-1-3-1-3 .45-3 1m53 0c0 .55 1.35 1 3 1s3-.45 3-1-1.35-1-3-1-3 .45-3 1M86.5 5c-.34.55-.141 1 .441 1S88 5.55 88 5s-.198-1-.441-1-.719.45-1.059 1M169 5c0 .55.477 1 1.059 1s.781-.45.441-1-.816-1-1.059-1-.441.45-.441 1M93.5 8c.34.55 1.041 1 1.559 1S96 8.55 96 8s-.702-1-1.559-1-1.281.45-.941 1M161 8c0 .55.423 1 .941 1s1.219-.45 1.559-1c.34-.55-.084-1-.941-1S161 7.45 161 8m-79 4.059c0 .582.45.781 1 .441s1-.816 1-1.059S83.55 11 83 11s-1 .477-1 1.059M173 12c0 .55.45 1 1 1s1-.45 1-1-.45-1-1-1-1 .45-1 1m22 5c0 .55.477 1 1.059 1s.781-.45.441-1-.816-1-1.059-1-.441.45-.441 1M71 21.175c-1.925.548-4.21 1.632-5.079 2.41-.868.778-2.166 1.415-2.885 1.415-2.023 0-6.25 4.992-8.762 10.349L52 40.199v176.602l2.274 4.85C56.881 227.21 61.032 232 63.242 232c.832 0 2.032.625 2.666 1.389C68.566 236.592 75.631 237 128.5 237s59.934-.408 62.592-3.611c.634-.764 1.738-1.389 2.454-1.389 2.07 0 6.756-5.281 9.204-10.373l2.25-4.681V40.199l-2.274-4.85C200.119 29.79 195.968 25 193.758 25c-.832 0-2.032-.625-2.666-1.389-2.676-3.224-9.634-3.612-63.285-3.521-32.055.054-54.702.487-56.807 1.085m-12.49 2.841c.346.559 1.047.758 1.559.441C61.456 23.6 61.198 23 59.441 23c-.857 0-1.276.457-.931 1.016m138 0c.346.559 1.047.758 1.559.441 1.387-.857 1.129-1.457-.628-1.457-.857 0-1.276.457-.931 1.016M207 25c0 .55.477 1 1.059 1s.781-.45.441-1-.816-1-1.059-1-.441.45-.441 1m5.5 11c.34.55.816 1 1.059 1s.441-.45.441-1-.477-1-1.059-1-.781.45-.441 1M39 40.059c0 .582.45.781 1 .441s1-.816 1-1.059S40.55 39 40 39s-1 .477-1 1.059M216 40c0 .55.45 1 1 1s1-.45 1-1-.45-1-1-1-1 .45-1 1m4.5 4c.34.55.816 1 1.059 1s.441-.45.441-1-.477-1-1.059-1-.781.45-.441 1M77 64.5V84h103V45H77v19.5m-54-4.941c0 .857.457 1.276 1.016.931.559-.346.758-1.047.441-1.559C23.6 57.544 23 57.802 23 59.559m209.543-.628c-.317.512-.118 1.213.441 1.559.559.345 1.016-.074 1.016-.931 0-1.757-.6-2.015-1.457-.628M16.5 61c-.34.55-.141 1 .441 1S18 61.55 18 61s-.198-1-.441-1-.719.45-1.059 1M239 61c0 .55.477 1 1.059 1s.781-.45.441-1-.816-1-1.059-1-.441.45-.441 1M11 83c0 .55.45 1 1 1s1-.45 1-1-.45-1-1-1-1 .45-1 1m233 0c0 .55.45 1 1 1s1-.45 1-1-.45-1-1-1-1 .45-1 1M4.5 87c-.34.55-.141 1 .441 1S6 87.55 6 87s-.198-1-.441-1-.719.45-1.059 1M251 87c0 .55.477 1 1.059 1s.781-.45.441-1-.816-1-1.059-1-.441.45-.441 1M7 94.441C7 95.298 7.45 96 8 96s1-.423 1-.941-.45-1.219-1-1.559c-.55-.34-1 .084-1 .941m241 .5c0 .518.45 1.219 1 1.559.55.34 1-.084 1-.941S249.55 94 249 94s-1 .423-1 .941m-248 6.5c0 1.343.45 2.719 1 3.059.583.361 1-.656 1-2.441C2 100.377 1.55 99 1 99s-1 1.098-1 2.441m255.232.559c0 1.925.206 2.713.457 1.75.252-.963.252-2.537 0-3.5-.251-.963-.457-.175-.457 1.75m-178.02 16.212l.288 9.288h18v-18l-9.288-.288-9.288-.288.288 9.288m42.491-8.581c-.387.386-.703 4.404-.703 8.929 0 6.579.317 8.348 1.582 8.833 2.332.895 14.709.709 16.211-.244.931-.59 1.211-3.178 1-9.235l-.293-8.414-8.547-.286c-4.701-.157-8.864.03-9.25.417m41.721.707c-.283.737-.381 4.899-.219 9.25l.295 7.912h18l.288-9.25.287-9.25h-9.069c-6.652 0-9.206.357-9.582 1.338m-84 42c-.283.737-.381 4.899-.219 9.25l.295 7.912 8.414.293c6.057.211 8.645-.069 9.235-1 .953-1.502 1.139-13.879.244-16.211-.815-2.124-17.163-2.345-17.969-.244m43.147.233c-1.099 1.099-1.571 3.483-1.571 7.929 0 8.343 1.157 9.5 9.5 9.5 4.446 0 6.83-.472 7.929-1.571 1.099-1.099 1.571-3.483 1.571-7.929s-.472-6.83-1.571-7.929c-1.099-1.099-3.483-1.571-7.929-1.571s-6.83.472-7.929 1.571m41.05-.026c-.906 2.361-.731 14.734.23 16.248.59.931 3.178 1.211 9.235 1l8.414-.293v-18l-8.629-.287c-7.202-.24-8.731-.02-9.25 1.332M0 155c0 1.65.45 3 1 3s1-1.35 1-3-.45-3-1-3-1 1.35-1 3m255.232 0c0 1.925.206 2.713.457 1.75.252-.963.252-2.537 0-3.5-.251-.963-.457-.175-.457 1.75M7 162c0 1.867.267 2.133 1.2 1.2.933-.933.933-1.467 0-2.4-.933-.933-1.2-.667-1.2 1.2m241.583-1.134c-.431.697-.513 1.537-.183 1.867.895.895 1.871-.421 1.387-1.871-.338-1.016-.574-1.016-1.204.004M4.5 170c.34.55.816 1 1.059 1s.441-.45.441-1-.477-1-1.059-1-.781.45-.441 1m246.5.059c0 .582.45.781 1 .441s1-.816 1-1.059-.45-.441-1-.441-1 .477-1 1.059M11 174c0 .55.45 1 1 1s1-.45 1-1-.45-1-1-1-1 .45-1 1m233 0c0 .55.45 1 1 1s1-.45 1-1-.45-1-1-1-1 .45-1 1M77.703 193.631c-.387.386-.703 4.694-.703 9.573v8.871l9.25-.287 9.25-.288v-18l-8.547-.286c-4.701-.157-8.864.03-9.25.417m42.504.22c-.931.59-1.211 3.178-1 9.235l.293 8.414h18l.293-8.414c.211-6.057-.069-8.645-1-9.235-.711-.451-4.443-.82-8.293-.82-3.85 0-7.582.369-8.293.82m41.232.448c-.291.758-.396 4.938-.234 9.289l.295 7.912 9.288.288 9.288.288-.288-9.288-.288-9.288-8.766-.289c-6.727-.222-8.89.031-9.295 1.088M16.5 196c.34.55.816 1 1.059 1s.441-.45.441-1-.477-1-1.059-1-.781.45-.441 1m222.5.059c0 .582.45.781 1 .441s1-.816 1-1.059-.45-.441-1-.441-1 .477-1 1.059m-216 1.382c0 .857.45 1.559 1 1.559s1-.423 1-.941-.45-1.219-1-1.559c-.55-.34-1 .084-1 .941m209.543-.51c-.317.512-.118 1.213.441 1.559.559.345 1.016-.074 1.016-.931 0-1.757-.6-2.015-1.457-.628M24.5 207c.34.55.816 1 1.059 1s.441-.45.441-1-.477-1-1.059-1-.781.45-.441 1m196 6c-.34.55-.141 1 .441 1s1.059-.45 1.059-1-.198-1-.441-1-.719.45-1.059 1M39 217c0 .55.477 1 1.059 1s.781-.45.441-1-.816-1-1.059-1-.441.45-.441 1m177 0c0 .55.45 1 1 1s1-.45 1-1-.45-1-1-1-1 .45-1 1m-3.5 4c-.34.55-.141 1 .441 1s1.059-.45 1.059-1-.198-1-.441-1-.719.45-1.059 1m-6.5 11.059c0 .582.45.781 1 .441s1-.816 1-1.059-.45-.441-1-.441-1 .477-1 1.059M58.5 233c-.34.55.11 1 1 1s1.34-.45 1-1c-.34-.55-.79-1-1-1-.21 0-.66.45-1 1m138 0c-.34.55.11 1 1 1s1.34-.45 1-1c-.34-.55-.79-1-1-1-.21 0-.66.45-1 1m-1.5 7.059c0 .582.45.781 1 .441s1-.816 1-1.059-.45-.441-1-.441-1 .477-1 1.059M82 245c0 .55.45 1 1 1s1-.45 1-1-.45-1-1-1-1 .45-1 1m91 0c0 .55.45 1 1 1s1-.45 1-1-.45-1-1-1-1 .45-1 1m-79 4c0 .55.702 1 1.559 1s1.281-.45.941-1c-.34-.55-1.041-1-1.559-1s-.941.45-.941 1m66.5 0c-.34.55.084 1 .941 1s1.559-.45 1.559-1-.423-1-.941-1-1.219.45-1.559 1m-74 3c.34.55.816 1 1.059 1s.441-.45.441-1-.477-1-1.059-1-.781.45-.441 1m82.5.059c0 .582.45.781 1 .441s1-.816 1-1.059-.45-.441-1-.441-1 .477-1 1.059m-68.75 3.63c.963.252 2.537.252 3.5 0 .963-.251.175-.457-1.75-.457s-2.713.206-1.75.457m53 0c.963.252 2.537.252 3.5 0 .963-.251.175-.457-1.75-.457s-2.713.206-1.75.457" fill="#1976D2" fill-rule="evenodd"/><path fill-opacity=".175" d="M68.992 24.529c-6.012 1.854-11.389 7.567-12.86 13.664-1.595 6.614-1.595 174 0 180.614 1.529 6.338 6.82 11.804 13.282 13.723 7.323 2.175 110.849 2.175 118.172 0 6.462-1.919 11.753-7.385 13.282-13.723 1.595-6.614 1.595-174 0-180.614-1.529-6.338-6.82-11.804-13.282-13.723-7.083-2.104-111.749-2.051-118.594.059m6.663 19.3C74.237 45.395 74 48.382 74 64.674c0 17.152.179 19.178 1.829 20.671C77.48 86.839 82.606 87 128.674 87c48.153 0 51.109-.103 52.671-1.829 1.418-1.566 1.655-4.553 1.655-20.845 0-17.152-.179-19.178-1.829-20.671C179.52 42.161 174.394 42 128.326 42c-48.153 0-51.109.103-52.671 1.829m0 64C74.369 109.25 74 111.697 74 118.81c0 10.819-.51 10.442 13.5 9.984l9-.294.294-9c.459-14.035.861-13.5-10.158-13.5-7.765 0-9.603.306-10.981 1.829m42 0c-2.041 2.255-2.4 18.026-.455 19.971 1.64 1.64 20.96 1.64 22.6 0 .748-.748 1.2-4.454 1.2-9.845 0-11.426-.561-11.955-12.674-11.955-7.465 0-9.301.315-10.671 1.829m42.82.421c-.31 1.237-.431 6.3-.269 11.25l.294 9 9 .294c14.035.459 13.5.861 13.5-10.158 0-12.22-.421-12.636-12.81-12.636-8.657 0-9.182.122-9.715 2.25m-84.82 41.579c-2.516 2.78-2.384 19.201.174 21.516 2.255 2.041 18.026 2.4 19.971.455 1.64-1.64 1.64-20.96 0-22.6-.748-.748-4.454-1.2-9.845-1.2-7.105 0-8.94.326-10.3 1.829M118 150c-1.686 1.686-2 3.333-2 10.5s.314 8.814 2 10.5 3.333 2 10.5 2 8.814-.314 10.5-2 2-3.333 2-10.5-.314-8.814-2-10.5-3.333-2-10.5-2-8.814.314-10.5 2m43.2-.8c-.775.775-1.2 4.778-1.2 11.3 0 6.522.425 10.525 1.2 11.3.748.748 4.454 1.2 9.845 1.2 11.426 0 11.955-.561 11.955-12.674 0-11.753-.564-12.326-12.129-12.326-5.255 0-8.927.456-9.671 1.2m-85.95 43.445c-.872.364-1.25 3.319-1.25 9.783C74 214.576 74.432 215 86.81 215c10.819 0 10.442.51 9.984-13.5l-.294-9-10-.188c-5.5-.103-10.562.047-11.25.333m41.95.555c-.748.748-1.2 4.454-1.2 9.845 0 11.426.561 11.955 12.674 11.955 11.753 0 12.326-.564 12.326-12.129 0-5.255-.456-8.927-1.2-9.671-.775-.775-4.778-1.2-11.3-1.2-6.522 0-10.525.425-11.3 1.2m43.467-.533c-.834.833-.885 18.602-.06 20.751.957 2.495 18.445 2.287 20.738-.247 2.363-2.611 2.424-19.662.073-20.564-2.149-.825-19.918-.774-20.751.06" fill="#1976D2" fill-rule="evenodd"/></svg>